<svg width="24" height="24" viewBox="0 0 24 24" fill="none" xmlns="http://www.w3.org/2000/svg">
<path d="M8.84999 16.825L12 14.925L15.15 16.85L14.325 13.25L17.1 10.85L13.45 10.525L12 7.125L10.55 10.5L6.89999 10.825L9.67499 13.25L8.84999 16.825ZM12 16.102L8.36999 18.294C8.26333 18.3467 8.16433 18.368 8.07299 18.358C7.98233 18.3473 7.89399 18.316 7.80799 18.264C7.72133 18.2107 7.65599 18.1353 7.61199 18.038C7.56799 17.9407 7.56399 17.8343 7.59999 17.719L8.56599 13.609L5.37099 10.839C5.28099 10.7657 5.22166 10.678 5.19299 10.576C5.16433 10.474 5.17066 10.3763 5.21199 10.283C5.25333 10.1897 5.30833 10.113 5.37699 10.053C5.44633 9.995 5.53966 9.95567 5.65699 9.935L9.87299 9.567L11.517 5.675C11.5623 5.565 11.6277 5.48567 11.713 5.437C11.7983 5.38833 11.894 5.364 12 5.364C12.106 5.364 12.202 5.38833 12.288 5.437C12.374 5.48567 12.439 5.565 12.483 5.675L14.127 9.567L18.342 9.935C18.46 9.955 18.5537 9.99467 18.623 10.054C18.6923 10.1127 18.7477 10.189 18.789 10.283C18.8297 10.3763 18.8357 10.474 18.807 10.576C18.7783 10.678 18.719 10.7657 18.629 10.839L15.434 13.609L16.4 17.719C16.4373 17.833 16.4337 17.939 16.389 18.037C16.3443 18.135 16.2787 18.2103 16.192 18.263C16.1067 18.3163 16.0183 18.348 15.927 18.358C15.8363 18.368 15.7377 18.3467 15.631 18.294L12 16.102Z" fill="black"/>
</svg>
