<svg width="14" height="14" viewBox="0 0 14 14" fill="none" xmlns="http://www.w3.org/2000/svg">
<path d="M6.15 0.554995C6.08966 0.51907 6.02073 0.500107 5.9505 0.500107C5.88027 0.500107 5.81135 0.51907 5.751 0.554995C5.70113 0.594509 5.66748 0.650939 5.65642 0.713599C5.64537 0.776259 5.65767 0.840798 5.691 0.894995C6.918 3.018 7.177 5.911 5.501 7.506C4.85666 6.96448 4.3452 6.2823 4.006 5.512C3.38646 5.85606 2.87298 6.36324 2.52128 6.97848C2.16958 7.59373 1.99311 8.29355 2.011 9.002C2.03664 9.62652 2.18685 10.2396 2.45281 10.8053C2.71877 11.3709 3.09512 11.8777 3.55973 12.2958C4.02434 12.7139 4.56784 13.035 5.1583 13.24C5.74875 13.4451 6.37424 13.5301 6.998 13.49C10.209 13.49 11.875 11.496 11.984 9.002C12.114 6.00999 9.99 2.33 6.15 0.554995Z" stroke="black" stroke-linecap="round" stroke-linejoin="round"/>
</svg>
